<svg width="18" height="20" viewBox="0 0 18 20" fill="none" xmlns="http://www.w3.org/2000/svg">
<path fill-rule="evenodd" clip-rule="evenodd" d="M2.93766 18.592C-0.0395847 16.3485 -0.634392 12.1162 1.60913 9.139L6.42365 2.74991C8.00245 0.654771 10.9807 0.236243 13.0758 1.81501C15.1709 3.39382 15.5895 6.37201 14.0107 8.46715L9.11019 14.9703C8.19616 16.1833 6.47192 16.4256 5.25895 15.5116C4.04598 14.5976 3.80367 12.8733 4.71769 11.6603L9.44625 5.38534C9.69552 5.05455 10.1658 4.98845 10.4966 5.23773C10.8274 5.487 10.8935 5.95727 10.6442 6.28806L5.91565 12.5631C5.50018 13.1144 5.61029 13.8981 6.16167 14.3136C6.71305 14.7291 7.49677 14.6189 7.91223 14.0676L12.8127 7.56443C13.8929 6.13096 13.6065 4.09317 12.1731 3.01297C10.7396 1.93275 8.7018 2.21916 7.6216 3.65263L2.80708 10.0417C1.06212 12.3574 1.52475 15.6491 3.84039 17.3941C6.15603 19.139 9.4478 18.6764 11.1928 16.3608L15.8353 10.1999C16.0846 9.86907 16.5549 9.80297 16.8857 10.0522C17.2165 10.3015 17.2826 10.7718 17.0333 11.1026L12.3907 17.2635C10.1472 20.2407 5.9149 20.8355 2.93766 18.592Z" fill="white"/>
</svg>
