<svg width="17" height="17" viewBox="0 0 17 17" fill="none" xmlns="http://www.w3.org/2000/svg">
<path d="M1.00102 6.86077C2.91742 11.0346 6.32742 14.3531 10.5669 16.1521L11.2465 16.4549C12.8014 17.1477 14.6291 16.6214 15.5774 15.2079L16.4655 13.8842C16.7543 13.4538 16.6664 12.8741 16.263 12.5487L13.2511 10.1189C12.8088 9.76204 12.1583 9.84524 11.8198 10.3018L10.8881 11.5591C8.49732 10.3797 6.55622 8.43874 5.37692 6.04792L6.63412 5.1162C7.09082 4.77778 7.17392 4.12726 6.81702 3.68488L4.3872 0.672942C4.06185 0.269662 3.48235 0.181692 3.05198 0.470262L1.71914 1.36396C0.296801 2.31766 -0.226579 4.16051 0.482151 5.71946L1.00024 6.85908L1.00102 6.86077Z" fill="white"/>
</svg>
