<svg width="23" height="23" viewBox="0 0 23 23" fill="none" xmlns="http://www.w3.org/2000/svg">
<path fill-rule="evenodd" clip-rule="evenodd" d="M1.93021 15.7679C-0.973291 8.64122 4.26973 0.84375 11.9652 0.84375H12.3803C18.1356 0.84375 22.8011 5.50926 22.8011 11.2644C22.8011 17.6722 17.6066 22.8667 11.1989 22.8667H1.0977C0.68663 22.8667 0.3203 22.6072 0.183874 22.2194C0.0474357 21.8317 0.170596 21.4 0.49111 21.1426L3.03762 19.0975C3.14897 19.0081 3.18836 18.8562 3.13447 18.7239L1.93021 15.7679ZM11.9652 2.78125C5.64571 2.78125 1.34017 9.18456 3.72451 15.037L4.92877 17.993C5.30594 18.9187 5.03023 19.9822 4.25082 20.6082L3.85111 20.9292H11.1989C16.5365 20.9292 20.8636 16.6021 20.8636 11.2644C20.8636 6.57932 17.0656 2.78125 12.3803 2.78125H11.9652Z" fill="black"/>
</svg>
