<svg width="24" height="24" viewBox="0 0 24 24" fill="none" xmlns="http://www.w3.org/2000/svg">
<path d="M14.6065 3.5C14.7391 3.5 14.8663 3.55268 14.9601 3.64645L17.7885 6.47487C17.9837 6.67014 17.9837 6.98672 17.7885 7.18198L8.59605 16.3744C8.53323 16.4372 8.45481 16.4821 8.36886 16.5046L4.54043 17.5046C4.36869 17.5494 4.18603 17.4999 4.06052 17.3744C3.935 17.2489 3.88544 17.0662 3.9303 16.8945L4.9303 13.066C4.95275 12.9801 4.9977 12.9017 5.06052 12.8388L14.2529 3.64645C14.3467 3.55268 14.4739 3.5 14.6065 3.5Z" fill="white"/>
<path d="M4 19.25C3.58579 19.25 3.25 19.5858 3.25 20C3.25 20.4142 3.58579 20.75 4 20.75H19C19.4142 20.75 19.75 20.4142 19.75 20C19.75 19.5858 19.4142 19.25 19 19.25H4Z" fill="white"/>
</svg>
