<svg width="24" height="24" viewBox="0 0 24 24" fill="none" xmlns="http://www.w3.org/2000/svg">
<path d="M12 8.75C10.2051 8.75 8.75 10.2051 8.75 12C8.75 13.7949 10.2051 15.25 12 15.25C13.7949 15.25 15.25 13.7949 15.25 12C15.25 10.2051 13.7949 8.75 12 8.75Z" fill="black"/>
<path fill-rule="evenodd" clip-rule="evenodd" d="M6.77021 3.08103C10.2184 2.69565 13.7831 2.69565 17.2312 3.08103C19.1296 3.2932 20.6608 4.78898 20.8836 6.69403C21.2959 10.2191 21.2959 13.7801 20.8836 17.3051C20.6608 19.2102 19.1296 20.706 17.2312 20.9181C13.7831 21.3035 10.2184 21.3035 6.77021 20.9181C4.87181 20.706 3.34062 19.2102 3.1178 17.3051C2.70552 13.7801 2.70552 10.2191 3.1178 6.69403C3.34062 4.78898 4.87181 3.2932 6.77021 3.08103ZM17.0007 5.99956C16.4484 5.99956 16.0007 6.44728 16.0007 6.99956C16.0007 7.55184 16.4484 7.99956 17.0007 7.99956C17.553 7.99956 18.0007 7.55184 18.0007 6.99956C18.0007 6.44728 17.553 5.99956 17.0007 5.99956ZM7.25067 11.9996C7.25067 9.37621 9.37732 7.24956 12.0007 7.24956C14.6241 7.24956 16.7507 9.37621 16.7507 11.9996C16.7507 14.623 14.6241 16.7496 12.0007 16.7496C9.37732 16.7496 7.25067 14.623 7.25067 11.9996Z" fill="black"/>
</svg>
