<svg width="25" height="21" viewBox="0 0 25 21" fill="none" xmlns="http://www.w3.org/2000/svg">
<path fill-rule="evenodd" clip-rule="evenodd" d="M0.46875 6.79098C0.46875 3.07779 3.72632 0.21875 7.55 0.21875C9.52102 0.21875 11.2553 1.14294 12.5 2.33877C13.7446 1.14294 15.4789 0.21875 17.45 0.21875C21.2737 0.21875 24.5312 3.07779 24.5312 6.79098C24.5312 9.33459 23.4465 11.5713 21.9438 13.4621C20.4435 15.3497 18.4812 16.9515 16.6023 18.2532C15.8846 18.7504 15.1586 19.209 14.4942 19.5474C13.8702 19.8652 13.1527 20.1562 12.5 20.1562C11.8473 20.1562 11.1298 19.8652 10.5058 19.5474C9.84144 19.209 9.11538 18.7504 8.39773 18.2532C6.51882 16.9515 4.55645 15.3497 3.05625 13.4621C1.55346 11.5713 0.46875 9.33459 0.46875 6.79098ZM7.55 2.28125C4.69103 2.28125 2.53125 4.38376 2.53125 6.79098C2.53125 8.72079 3.35046 10.5175 4.67087 12.1788C5.99388 13.8433 7.77401 15.312 9.57227 16.5579C10.2527 17.0292 10.8936 17.4303 11.4419 17.7096C12.0306 18.0093 12.3717 18.0937 12.5 18.0937C12.6283 18.0937 12.9694 18.0093 13.5581 17.7096C14.1064 17.4303 14.7473 17.0292 15.4278 16.5579C17.226 15.312 19.0061 13.8433 20.3291 12.1788C21.6495 10.5175 22.4687 8.72079 22.4687 6.79098C22.4687 4.38376 20.3089 2.28125 17.45 2.28125C15.808 2.28125 14.2748 3.2622 13.3176 4.50727C13.1223 4.76115 12.8202 4.90992 12.5 4.90992C12.1798 4.90992 11.8777 4.76115 11.6824 4.50727C10.7251 3.2622 9.19195 2.28125 7.55 2.28125Z" fill="black"/>
</svg>
