<svg width="32" height="32" viewBox="0 0 32 32" fill="none" xmlns="http://www.w3.org/2000/svg">
<path d="M25.2737 4.14119C25.6641 3.75067 25.6641 3.11749 25.2737 2.72697C24.8832 2.33645 24.25 2.33645 23.8595 2.72697L22.9167 3.66979C22.256 4.33036 22.2899 5.35685 22.8661 5.99993C26.7361 10.3183 26.5957 16.9612 22.4452 21.1117C20.2985 23.2585 17.4851 24.3324 14.6713 24.3336H14.6671H14.6631C12.0394 24.3326 9.41605 23.399 7.33343 21.5326C6.69035 20.9564 5.66385 20.9225 5.00328 21.5832L4.06047 22.526C3.66995 22.9165 3.66995 23.5497 4.06047 23.9402C4.45099 24.3306 5.08416 24.3306 5.47468 23.9402L6.20861 23.2062C8.36832 25.0604 10.992 26.0901 13.6671 26.2953V28.3336H11.3337C10.7815 28.3336 10.3337 28.7813 10.3337 29.3336C10.3337 29.8858 10.7815 30.3336 11.3337 30.3336H18.0004C18.5527 30.3336 19.0004 29.8858 19.0004 29.3336C19.0004 28.7813 18.5527 28.3336 18.0004 28.3336H15.6671V26.2953C18.6533 26.0664 21.5755 24.81 23.8595 22.526C28.6984 17.687 28.9251 9.98322 24.5397 4.87512L25.2737 4.14119Z" fill="#0082FA"/>
<path fill-rule="evenodd" clip-rule="evenodd" d="M6 13.3332C6 8.5467 9.8802 4.6665 14.6667 4.6665C19.4532 4.6665 23.3333 8.5467 23.3333 13.3332C23.3333 18.1197 19.4532 21.9998 14.6667 21.9998C9.8802 21.9998 6 18.1197 6 13.3332ZM17.3333 8.33317C15.3083 8.33317 13.6667 9.9748 13.6667 11.9998C13.6667 14.0249 15.3083 15.6665 17.3333 15.6665C19.3584 15.6665 21 14.0249 21 11.9998C21 9.9748 19.3584 8.33317 17.3333 8.33317ZM8.33333 16.6665C8.33333 15.746 9.07952 14.9998 10 14.9998C10.9205 14.9998 11.6667 15.746 11.6667 16.6665C11.6667 17.587 10.9205 18.3332 10 18.3332C9.07952 18.3332 8.33333 17.587 8.33333 16.6665Z" fill="#0082FA"/>
</svg>
