<svg width="16" height="22" viewBox="0 0 16 22" fill="none" xmlns="http://www.w3.org/2000/svg">
    <path fill-rule="evenodd" clip-rule="evenodd" d="M8 20.6992C4.22433 20.6992 1 20.1117 1 17.7586C1 15.4056 4.20388 13.2334 8 13.2334C11.7757 13.2334 15 15.3845 15 17.7376C15 20.0896 11.7961 20.6992 8 20.6992Z" stroke="#A0A1A1" stroke-width="1.5" stroke-linecap="round" stroke-linejoin="round"/>
    <path fill-rule="evenodd" clip-rule="evenodd" d="M7.99478 9.97291C10.4725 9.97291 12.4808 7.96467 12.4808 5.48692C12.4808 3.00916 10.4725 1 7.99478 1C5.51703 1 3.50784 3.00916 3.50784 5.48692C3.4995 7.9563 5.49379 9.96454 7.96317 9.97291C7.97433 9.97291 7.98456 9.97291 7.99478 9.97291Z" stroke="#A0A1A1" stroke-width="1.5" stroke-linecap="round" stroke-linejoin="round"/>
</svg>
