<svg width="14" height="20" viewBox="0 0 14 20" fill="none" xmlns="http://www.w3.org/2000/svg">
    <path fill-rule="evenodd" clip-rule="evenodd" d="M7 19.6992C3.22433 19.6992 0 19.1117 0 16.7586C0 14.4056 3.20388 12.2334 7 12.2334C10.7757 12.2334 14 14.3845 14 16.7376C14 19.0896 10.7961 19.6992 7 19.6992Z" fill="white"/>
    <path fill-rule="evenodd" clip-rule="evenodd" d="M6.99478 8.97291C9.47254 8.97291 11.4808 6.96467 11.4808 4.48692C11.4808 2.00916 9.47254 0 6.99478 0C4.51703 0 2.50784 2.00916 2.50784 4.48692C2.4995 6.9563 4.49379 8.96454 6.96317 8.97291C6.97433 8.97291 6.98456 8.97291 6.99478 8.97291Z" fill="white"/>
</svg>
