<svg width="25" height="23" viewBox="0 0 25 23" fill="none" xmlns="http://www.w3.org/2000/svg">
    <path fill-rule="evenodd" clip-rule="evenodd" d="M12.2877 1.91699C14.8194 1.91699 16.9108 3.82567 17.1687 6.26679L17.2406 6.26763C18.645 6.26763 20.3526 7.19051 20.9289 9.77897L21.6931 15.6315C21.9672 17.5204 21.6243 19.0355 20.6722 20.1223C19.725 21.2033 18.2257 21.7754 16.336 21.7754H8.2505C6.17489 21.7754 4.72883 21.2723 3.82904 20.2382C2.92538 19.2013 2.62319 17.6459 2.93119 15.6162L3.68279 9.84126C4.17676 7.19338 5.98311 6.26763 7.38171 6.26763C7.50245 5.16601 8.00448 4.118 8.80093 3.33245C9.71622 2.43258 10.9782 1.91699 12.2674 1.91699H12.2877ZM17.2406 7.70513H7.38171C6.95457 7.70513 5.52692 7.87572 5.11722 10.0646L4.3695 15.8145C4.12639 17.4274 4.31429 18.5947 4.92932 19.301C5.53661 19.9986 6.62333 20.3379 8.2505 20.3379H16.336C17.351 20.3379 18.7371 20.1376 19.5739 19.1812C20.2383 18.4231 20.4669 17.2942 20.2538 15.8251L19.4993 10.0253C19.1777 8.59638 18.3293 7.70513 17.2406 7.70513ZM15.1125 10.3732C15.5135 10.3732 15.8612 10.6952 15.8612 11.092C15.8612 11.4887 15.5581 11.8107 15.1571 11.8107H15.1125C14.7115 11.8107 14.3861 11.4887 14.3861 11.092C14.3861 10.6952 14.7115 10.3732 15.1125 10.3732ZM9.46575 10.3732C9.86673 10.3732 10.2144 10.6952 10.2144 11.092C10.2144 11.4887 9.91031 11.8107 9.50933 11.8107H9.46575C9.06477 11.8107 8.73933 11.4887 8.73933 11.092C8.73933 10.6952 9.06477 10.3732 9.46575 10.3732ZM12.2848 3.35449H12.2703C11.3589 3.35449 10.4707 3.7177 9.82663 4.35116C9.30197 4.86796 8.95882 5.54735 8.84782 6.26719L15.7045 6.26746C15.4556 4.62081 14.0165 3.35449 12.2848 3.35449Z" fill="#A0A1A1"/>
</svg>
