<svg width="25" height="20" viewBox="0 0 25 20" fill="none" xmlns="http://www.w3.org/2000/svg">
<path fill-rule="evenodd" clip-rule="evenodd" d="M7.00267 0.260169C10.7102 -0.0192721 14.4339 -0.000929236 18.1385 0.314991L20.3712 0.505386C22.0576 0.649211 23.4263 1.92908 23.6827 3.60211L23.8235 4.52106C24.3015 7.63942 24.2569 10.8156 23.6914 13.9193C23.4123 15.4508 22.0784 16.5637 20.5217 16.5637H8.17914C7.89518 16.5637 7.61564 16.6339 7.36551 16.7684L1.98818 19.6583C1.66859 19.83 1.28224 19.8212 0.970831 19.635C0.659421 19.4488 0.46875 19.1128 0.46875 18.7499V7.03863C0.46875 3.49305 3.20144 0.546664 6.73697 0.280189L7.00267 0.260169ZM7 7.0624C6.05075 7.0624 5.28125 7.83188 5.28125 8.78118C5.28125 9.73034 6.05075 10.4999 7 10.4999C7.94924 10.4999 8.71875 9.73034 8.71875 8.78118C8.71875 7.83188 7.94924 7.0624 7 7.0624ZM12.5 7.0624C11.5507 7.0624 10.7812 7.83188 10.7812 8.78118C10.7812 9.73034 11.5507 10.4999 12.5 10.4999C13.4493 10.4999 14.2187 9.73034 14.2187 8.78118C14.2187 7.83188 13.4493 7.0624 12.5 7.0624ZM16.2812 8.78118C16.2812 7.83188 17.0507 7.0624 18 7.0624C18.9493 7.0624 19.7187 7.83188 19.7187 8.78118C19.7187 9.73034 18.9493 10.4999 18 10.4999C17.0507 10.4999 16.2812 9.73034 16.2812 8.78118Z" fill="#0082FA"/>
</svg>
