<svg width="18" height="15" viewBox="0 0 18 15" fill="none" xmlns="http://www.w3.org/2000/svg">
<path fill-rule="evenodd" clip-rule="evenodd" d="M5.00194 0.552717C7.6983 0.349487 10.4065 0.362827 13.1007 0.592587L14.7245 0.731057C15.951 0.835657 16.9464 1.76647 17.1329 2.98322L17.2353 3.65155C17.5829 5.91945 17.5505 8.22942 17.1392 10.4866C16.9362 11.6004 15.9661 12.4098 14.834 12.4098H5.85756C5.65104 12.4098 5.44774 12.4609 5.26583 12.5587L1.35504 14.6604C1.12261 14.7853 0.84163 14.7789 0.61515 14.6435C0.38867 14.5081 0.25 14.2637 0.25 13.9998V5.48251C0.25 2.90391 2.23741 0.761077 4.80871 0.567277L5.00194 0.552717ZM5 5.4998C4.30964 5.4998 3.75 6.05942 3.75 6.74982C3.75 7.44012 4.30964 7.99982 5 7.99982C5.69036 7.99982 6.25 7.44012 6.25 6.74982C6.25 6.05942 5.69036 5.4998 5 5.4998ZM9 5.4998C8.3096 5.4998 7.75 6.05942 7.75 6.74982C7.75 7.44012 8.3096 7.99982 9 7.99982C9.6904 7.99982 10.25 7.44012 10.25 6.74982C10.25 6.05942 9.6904 5.4998 9 5.4998ZM11.75 6.74982C11.75 6.05942 12.3096 5.4998 13 5.4998C13.6904 5.4998 14.25 6.05942 14.25 6.74982C14.25 7.44012 13.6904 7.99982 13 7.99982C12.3096 7.99982 11.75 7.44012 11.75 6.74982Z" fill="white"/>
</svg>
