<svg width="24" height="24" viewBox="0 0 24 24" fill="none" xmlns="http://www.w3.org/2000/svg">
<path fill-rule="evenodd" clip-rule="evenodd" d="M15.1806 16.5942C11.6468 19.4245 6.47424 19.2017 3.19854 15.9259C-0.31618 12.4113 -0.31618 6.71277 3.19854 3.19805C6.71326 -0.316668 12.4118 -0.316668 15.9264 3.19805C19.2022 6.47376 19.425 11.6463 16.5947 15.1801L23.4688 22.0542C23.8594 22.4447 23.8594 23.0779 23.4688 23.4685C23.0784 23.859 22.4452 23.859 22.0547 23.4685L15.1806 16.5942ZM4.61275 14.5118C1.87909 11.7781 1.87909 7.34593 4.61275 4.61227C7.34642 1.8786 11.7786 1.8786 14.5123 4.61227C17.2439 7.34393 17.2459 11.7715 14.5183 14.5058C14.5162 14.5078 14.5142 14.5097 14.5122 14.5118C14.5102 14.5138 14.5082 14.5158 14.5062 14.5178C11.772 17.2454 7.34442 17.2434 4.61275 14.5118Z" fill="black"/>
</svg>
