<svg width="26" height="21" viewBox="0 0 26 21" fill="none" xmlns="http://www.w3.org/2000/svg">
<path d="M7.89935 0.4375C3.9598 0.4375 0.603516 3.38318 0.603516 7.20888C0.603516 9.84799 1.83934 12.07 3.47721 13.9106C5.10945 15.7449 7.2153 17.2845 9.11905 18.5731L12.4038 20.7966C12.7635 21.0401 13.2352 21.0401 13.5949 20.7966L16.8796 18.5731C18.7835 17.2845 20.8892 15.7449 22.5215 13.9106C24.1594 12.07 25.3952 9.84799 25.3952 7.20888C25.3952 3.38318 22.039 0.4375 18.0993 0.4375C16.0686 0.4375 14.2817 1.3897 12.9993 2.62176C11.717 1.3897 9.93009 0.4375 7.89935 0.4375Z" fill="#0082FA"/>
</svg>
