<svg width="35" height="35" viewBox="0 0 35 35" fill="none" xmlns="http://www.w3.org/2000/svg">
<path d="M10.2188 17.5002C10.2188 16.8961 10.7084 16.4064 11.3125 16.4064H16.4059V11.313C16.4059 10.7089 16.8956 10.2192 17.4996 10.2192C18.1037 10.2192 18.5934 10.7089 18.5934 11.313V16.4064H23.6869C24.291 16.4064 24.7807 16.8961 24.7807 17.5002C24.7807 18.1042 24.291 18.5939 23.6869 18.5939H18.5934V23.6873C18.5934 24.2915 18.1037 24.7811 17.4996 24.7811C16.8956 24.7811 16.4059 24.2915 16.4059 23.6873V18.5939H11.3125C10.7084 18.5939 10.2188 18.1042 10.2188 17.5002Z" fill="#A0A1A1"/>
<path fill-rule="evenodd" clip-rule="evenodd" d="M10.6702 5.49608C15.1729 4.99284 19.827 4.99284 24.3296 5.49608C26.9931 5.79376 29.144 7.89179 29.4574 10.5707C29.9959 15.1745 29.9959 19.8254 29.4574 24.4292C29.144 27.1082 26.9931 29.2062 24.3296 29.504C19.827 30.0071 15.1729 30.0071 10.6702 29.504C8.00674 29.2062 5.85584 27.1082 5.54252 24.4292C5.00406 19.8254 5.00406 15.1745 5.54252 10.5707C5.85584 7.89179 8.00674 5.79376 10.6702 5.49608ZM24.0867 7.67005C19.7455 7.18485 15.2544 7.18485 10.9132 7.67005C9.24422 7.85657 7.90831 9.17381 7.71522 10.8248C7.1965 15.2598 7.1965 19.7401 7.71522 24.1752C7.90831 25.8262 9.24422 27.1434 10.9132 27.3299C15.2544 27.8151 19.7455 27.8151 24.0867 27.3299C25.7558 27.1434 27.0916 25.8262 27.2847 24.1752C27.8034 19.7401 27.8034 15.2598 27.2847 10.8248C27.0916 9.17381 25.7558 7.85657 24.0867 7.67005Z" fill="#A0A1A1"/>
</svg>
