<svg width="23" height="26" viewBox="0 0 23 26" fill="none" xmlns="http://www.w3.org/2000/svg">
<path fill-rule="evenodd" clip-rule="evenodd" d="M13.6417 3.6095C12.4447 2.46088 10.5547 2.46088 9.35774 3.6095L2.99635 9.7136C2.8405 9.8631 2.73565 10.0579 2.69669 10.2704C1.93476 14.4255 1.87852 18.6792 2.53033 22.853L2.68504 23.8437H6.77767V15.3031C6.77767 14.7335 7.23938 14.2719 7.80892 14.2719H15.1905C15.76 14.2719 16.2217 14.7335 16.2217 15.3031V23.8437H20.3144L20.4691 22.853C21.1209 18.6792 21.0646 14.4255 20.3027 10.2704C20.2638 10.0579 20.1589 9.8631 20.0031 9.7136L13.6417 3.6095ZM7.9297 2.12131C9.92479 0.206958 13.0746 0.206958 15.0698 2.12131L21.4311 8.22541C21.8994 8.67474 22.2144 9.26007 22.3314 9.89844C23.1351 14.2814 23.1945 18.7686 22.5069 23.1712L22.2584 24.7627C22.1555 25.4209 21.5886 25.9062 20.9224 25.9062H15.1905C14.621 25.9062 14.1592 25.4445 14.1592 24.8749V16.3344H8.84019V24.8749C8.84019 25.4445 8.37846 25.9062 7.80892 25.9062H2.07692C1.41076 25.9062 0.843862 25.4209 0.74108 24.7627L0.492535 23.1712C-0.195033 18.7686 -0.135702 14.2814 0.668026 9.89844C0.78508 9.26007 1.10007 8.67474 1.56835 8.22541L7.9297 2.12131Z" fill="black"/>
</svg>
