<svg width="22" height="27" viewBox="0 0 22 27" fill="none" xmlns="http://www.w3.org/2000/svg">
<path d="M13.545 1.85929C12.1533 0.421907 9.84797 0.421907 8.45624 1.85927L1.65845 8.8799C1.26803 9.2831 1.00569 9.79283 0.904458 10.3449C0.078881 14.847 0.0179357 19.456 0.724201 23.9784L0.974243 25.5795C1.05322 26.0853 1.48879 26.4582 2.00065 26.4582H6.75067C7.14187 26.4582 7.45901 26.141 7.45901 25.7498V15.8332H14.5424V25.7498C14.5424 26.141 14.8594 26.4582 15.2507 26.4582H20.0007C20.5125 26.4582 20.9481 26.0853 21.027 25.5795L21.2771 23.9784C21.9833 19.456 21.9224 14.847 21.0969 10.3449C20.9956 9.79283 20.7332 9.2831 20.3428 8.8799L13.545 1.85929Z" fill="#0082FA"/>
</svg>
