<svg width="32" height="32" viewBox="0 0 32 32" fill="none" xmlns="http://www.w3.org/2000/svg">
<path fill-rule="evenodd" clip-rule="evenodd" d="M19.1806 20.5947C15.6468 23.4249 10.4742 23.2021 7.19854 19.9264C3.68382 16.4117 3.68382 10.7133 7.19854 7.19854C10.7133 3.68382 16.4118 3.68382 19.9264 7.19854C23.2022 10.4742 23.425 15.6468 20.5947 19.1805L27.4688 26.0547C27.8594 26.4452 27.8594 27.0784 27.4688 27.4689C27.0784 27.8595 26.4452 27.8595 26.0547 27.4689L19.1806 20.5947ZM8.61275 18.5123C5.87909 15.7785 5.87909 11.3464 8.61275 8.61275C11.3464 5.87909 15.7786 5.87909 18.5123 8.61275C21.2439 11.3444 21.2459 15.772 18.5183 18.5063C18.5162 18.5083 18.5142 18.5101 18.5122 18.5123C18.5102 18.5143 18.5082 18.5163 18.5062 18.5183C15.772 21.2459 11.3444 21.2439 8.61275 18.5123Z" fill="#0085FF"/>
<circle cx="14" cy="13" r="11" fill="#0082FA"/>
</svg>
