<svg width="24" height="24" viewBox="0 0 24 24" fill="none" xmlns="http://www.w3.org/2000/svg">
<path fill-rule="evenodd" clip-rule="evenodd" d="M6.98802 4.89006C10.3237 4.62909 13.6746 4.62909 17.0103 4.89006L19.251 5.06536C20.4991 5.163 21.5201 6.0984 21.7264 7.33317C22.2426 10.4226 22.2426 13.5764 21.7264 16.6659C21.5201 17.9006 20.4991 18.836 19.251 18.9337L17.0103 19.109C13.6746 19.3699 10.3237 19.3699 6.98802 19.109L4.74732 18.9337C3.49925 18.836 2.47823 17.9006 2.27192 16.6659C1.75571 13.5764 1.75571 10.4226 2.27192 7.33317C2.47823 6.0984 3.49925 5.163 4.74732 5.06536L6.98802 4.89006ZM9.99914 14.4696V9.5294C9.99914 9.29621 10.2535 9.15217 10.4534 9.27215L14.5704 11.7423C14.7646 11.8588 14.7646 12.1402 14.5704 12.2567L10.4534 14.7269C10.2535 14.8469 9.99914 14.7028 9.99914 14.4696Z" fill="black"/>
</svg>
